<svg width="1920" height="443.34" version="1.1" viewBox="0 0 1920 443.34" xmlns="http://www.w3.org/2000/svg">
 <style type="text/css">.st0{fill-rule:evenodd;clip-rule:evenodd;fill:#1A1A1A;}
	.st1{fill-rule:evenodd;clip-rule:evenodd;fill:#4DD0E1;}
	.st2{fill-rule:evenodd;clip-rule:evenodd;fill:#1A1A1A;stroke:#FFFFFF;stroke-miterlimit:10;}
	.st3{fill-rule:evenodd;clip-rule:evenodd;fill:#56BFD8;}
	.st4{fill-rule:evenodd;clip-rule:evenodd;fill:#61E4AC;}
	.st5{fill-rule:evenodd;clip-rule:evenodd;fill:#E7FF92;}
	.st6{fill-rule:evenodd;clip-rule:evenodd;fill:#FFFFFF;}
	.st7{fill-rule:evenodd;clip-rule:evenodd;fill:#54B3E5;}
	.st8{fill-rule:evenodd;clip-rule:evenodd;fill:#59C9CB;}
	.st9{fill-rule:evenodd;clip-rule:evenodd;fill:#5DD8BA;}
	.st10{fill-rule:evenodd;clip-rule:evenodd;fill:#67F598;}
	.st11{fill:#FFFFFF;}</style>
 <g transform="translate(-10,-11.86)">
  <path class="st3" d="m10 75.03c0-5.4 4.37-9.77 9.77-9.77h253.54c2.59 0 5.08 1.03 6.91 2.86s2.86 4.32 2.86 6.91v39.08c0 5.4-4.37 9.77-9.77 9.77h-253.54c-5.4 0-9.77-4.37-9.77-9.77z"/>
  <path class="st3" d="m240.76 266.73v39.08c0 5.4-4.38 9.76-9.78 9.76h-158.17v129.16c0 2.78-1.09 5.43-3.06 7.41-1.96 1.96-4.63 3.06-7.41 3.06h-41.86c-5.79 0-10.47-4.7-10.47-10.47v-177.3c0-5.79 4.67-10.47 10.47-10.47h210.5c2.6 0 5.09 1.03 6.91 2.85 1.84 1.86 2.87 4.35 2.87 6.92z"/>
  <path class="st4" d="m102.19 352.7c0-5.4 4.37-9.77 9.77-9.77h253.54c2.59 0 5.08 1.03 6.91 2.86s2.86 4.32 2.86 6.91v39.08c0 5.4-4.37 9.77-9.77 9.77h-253.54c-5.4 0-9.77-4.37-9.77-9.77z"/>
  <path class="st4" d="m375.27 22.33v177.3c0 2.78-1.12 5.45-3.08 7.41-1.71 1.71-3.97 2.78-6.36 3.03-0.16 0-0.34 0.02-0.5 0.02h-211.04c-5.4 0-9.78-4.36-9.78-9.76v-39.08c0-5.38 4.38-9.76 9.78-9.76h158.16v-129.16c0-5.77 4.67-10.47 10.47-10.47h41.89c5.77 0 10.46 4.7 10.46 10.47z"/>
  <path class="st11" d="m514.51 197.12c-3.43 0-6.22-1.07-8.36-3.21s-3.22-4.93-3.22-8.36 1.07-6.22 3.22-8.36c2.14-2.14 4.93-3.21 8.36-3.21h116.17c3.43 0 6.22 1.07 8.36 3.21 2.15 2.14 3.22 4.93 3.22 8.36s-1.07 6.22-3.22 8.36c-2.14 2.14-4.93 3.21-8.36 3.21zm46.29 202.77c-3.72 0-6.79-1.21-9.22-3.64s-3.65-5.5-3.65-9.22v-222.06c0-19.43 3-36.65 9.01-51.66 6-15 15.36-26.79 28.08-35.37 12.71-8.57 28.93-12.86 48.65-12.86 4 0 7.14 1.07 9.43 3.22 2.28 2.14 3.43 4.93 3.43 8.36s-1.15 6.22-3.43 8.36c-2.29 2.14-5.43 3.22-9.43 3.22-14.57 0-26.22 3.36-34.94 10.07-8.72 6.72-15 15.86-18.86 27.44-3.86 11.57-5.78 24.65-5.78 39.22v222.06c0 3.72-1.22 6.79-3.65 9.22-2.42 2.43-5.64 3.64-9.64 3.64z"/>
  <path class="st11" d="m783.72 402.46c-22.87 0-43.37-5.21-61.52-15.65-18.15-10.43-32.44-24.72-42.87-42.87-10.44-18.15-15.65-38.51-15.65-61.09 0-22.86 5.21-43.36 15.65-61.52 10.43-18.15 24.72-32.43 42.87-42.87 18.15-10.43 38.65-15.65 61.52-15.65 22.86 0 43.29 5.22 61.3 15.65 18 10.44 32.22 24.72 42.65 42.87s15.65 38.66 15.65 61.52l-10.72 17.15c0 19.44-4.79 36.87-14.36 52.3-9.58 15.43-22.5 27.65-38.79 36.65-16.29 9.01-34.88 13.51-55.73 13.51zm0-24c18 0 34.08-4.21 48.23-12.65 14.14-8.43 25.29-19.86 33.44-34.29s12.22-30.65 12.22-48.66c0-18.29-4.07-34.65-12.22-49.08s-19.29-25.86-33.44-34.29-30.22-12.65-48.23-12.65c-17.72 0-33.73 4.22-48.01 12.65-14.3 8.43-25.58 19.87-33.87 34.29-8.29 14.44-12.43 30.8-12.43 49.08 0 18.01 4.14 34.23 12.43 48.66s19.57 25.87 33.87 34.29c14.28 8.43 30.28 12.65 48.01 12.65zm106.74 21.43c-3.72 0-6.79-1.21-9.22-3.64s-3.64-5.5-3.64-9.22v-78.45l8.15-25.72h17.57v104.17c0 3.72-1.15 6.79-3.43 9.22-2.29 2.43-5.43 3.64-9.43 3.64z"/>
  <path class="st11" d="m980.48 399.89c-3.72 0-6.79-1.21-9.22-3.64s-3.64-5.5-3.64-9.22v-208.77c0-4 1.21-7.14 3.64-9.43 2.43-2.28 5.5-3.43 9.22-3.43 4 0 7.14 1.15 9.43 3.43 2.28 2.29 3.43 5.43 3.43 9.43v208.77c0 3.72-1.15 6.79-3.43 9.22-2.29 2.43-5.43 3.64-9.43 3.64zm189.9 0c-3.72 0-6.79-1.21-9.22-3.64s-3.64-5.5-3.64-9.22v-115.32c0-18.86-3.64-34.44-10.93-46.73s-17.15-21.5-29.58-27.65c-12.43-6.14-26.51-9.22-42.22-9.22-15.43 0-29.3 2.93-41.58 8.79-12.29 5.86-22.01 13.93-29.15 24.22-7.15 10.29-10.72 21.86-10.72 34.72h-21.44c1.14-17.72 6.43-33.65 15.86-47.8s21.72-25.29 36.87-33.44c15.14-8.15 31.86-12.22 50.16-12.22 20.58 0 39.08 4.22 55.51 12.65s29.36 20.72 38.79 36.87 14.15 36.08 14.15 59.8v115.32c0 3.72-1.22 6.79-3.64 9.22-2.43 2.44-5.51 3.65-9.22 3.65z"/>
  <path class="st11" d="m1242 210.84c-6 0-10.86-1.72-14.58-5.14-3.72-3.43-5.57-7.72-5.57-12.86 0-5.71 1.86-10.29 5.57-13.72s8.57-5.14 14.58-5.14h105.88c6 0 10.86 1.71 14.58 5.14 3.71 3.43 5.57 8 5.57 13.72 0 5.14-1.86 9.43-5.57 12.86-3.72 3.43-8.57 5.14-14.58 5.14zm39.44 189.05c-5.43 0-10.29-2-14.57-6-4.29-4-6.43-9.28-6.43-15.86v-211.34c0-20.58 4.07-38.43 12.22-53.59 8.15-15.14 19.51-26.93 34.08-35.37 14.57-8.43 31.43-12.65 50.58-12.65 6.28 0 11.5 1.86 15.65 5.57 4.14 3.72 6.22 8.43 6.22 14.15 0 5.43-2.08 10.07-6.22 13.93-4.15 3.86-9.36 5.79-15.65 5.79-10.58 0-19.87 2.43-27.87 7.29s-14.22 11.57-18.65 20.15c-4.43 8.57-6.64 18.72-6.64 30.44v215.63c0 6.58-2 11.86-6 15.86-4.01 4-9.58 6-16.72 6z"/>
  <path class="st11" d="m1435.3 400.32c-6.29 0-11.51-2.07-15.65-6.22-4.14-4.14-6.21-9.36-6.21-15.65v-191.19c0-6.57 2.07-11.86 6.21-15.86s9.36-6 15.65-6c6.57 0 11.86 2 15.86 6s6 9.29 6 15.86v191.19c0 6.29-2 11.51-6 15.65-4 4.15-9.29 6.22-15.86 6.22zm176.19 0c-6.29 0-11.51-2.07-15.65-6.22-4.15-4.14-6.22-9.36-6.22-15.65v-105.45c0-16.29-3-29.58-9-39.87s-14.08-17.93-24.22-22.93c-10.15-5-21.8-7.5-34.94-7.5-12 0-22.87 2.43-32.58 7.29-9.72 4.86-17.43 11.36-23.15 19.5-5.72 8.15-8.57 17.51-8.57 28.08h-27.01c0-18 4.35-34.08 13.07-48.23s20.64-25.36 35.8-33.65c15.14-8.29 32.15-12.43 51.01-12.43 19.72 0 37.36 4.22 52.94 12.65 15.57 8.43 27.87 20.79 36.87 37.08s13.5 36.3 13.5 60.02v105.46c0 6.29-2.08 11.51-6.22 15.65-4.13 4.13-9.35 6.2-15.63 6.2z"/>
  <path class="st11" d="m1812.1 401.61c-22.29 0-42.37-5.21-60.23-15.65-17.86-10.43-32.01-24.65-42.44-42.65s-15.65-38.29-15.65-60.87c0-22.57 4.78-42.8 14.36-60.66 9.57-17.86 22.65-32 39.22-42.44 16.57-10.43 35.29-15.65 56.16-15.65 16.86 0 32.43 3.5 46.73 10.5 14.29 7.01 26.29 16.5 36.01 28.51v-115.75c0-6.57 2.07-11.86 6.22-15.86 4.14-4 9.36-6 15.65-6 6.57 0 11.86 2 15.86 6 4 4.01 6 9.29 6 15.86v195.48c0 22.58-5.22 42.87-15.65 60.87-10.44 18-24.51 32.23-42.22 42.65-17.73 10.44-37.73 15.66-60.02 15.66zm0-38.59c14.57 0 27.58-3.5 39.01-10.5s20.43-16.65 27.01-28.94c6.57-12.28 9.86-26 9.86-41.15 0-15.43-3.29-29.15-9.86-41.15-6.58-12-15.58-21.5-27.01-28.51-11.43-7-24.44-10.5-39.01-10.5-14.29 0-27.22 3.5-38.8 10.5-11.57 7.01-20.72 16.5-27.43 28.51-6.72 12-10.08 25.72-10.08 41.15 0 15.15 3.36 28.87 10.08 41.15 6.71 12.29 15.86 21.94 27.43 28.94 11.58 7.01 24.51 10.5 38.8 10.5z"/>
 </g>
</svg>
